<svg xmlns="http://www.w3.org/2000/svg" viewBox="0 0 128 128" role="img" aria-label="Talkable">
  <rect width="128" height="128" rx="26" fill="#155EEF"/>
  <path fill="#FFFFFF" d="M64 24c-11.05 0-20 8.95-20 20v22c0 11.05 8.95 20 20 20s20-8.95 20-20V44c0-11.05-8.95-20-20-20Zm-8 20a8 8 0 0 1 16 0v22a8 8 0 0 1-16 0V44Z"/>
  <path fill="#D1E9FF" d="M34 60a6 6 0 0 1 12 0v6c0 9.94 8.06 18 18 18s18-8.06 18-18v-6a6 6 0 0 1 12 0v6c0 14.5-10.32 26.6-24 29.39V104h10a6 6 0 0 1 0 12H48a6 6 0 0 1 0-12h10v-8.61C44.32 92.6 34 80.5 34 66v-6Z"/>
  <path fill="#101828" fill-opacity=".16" d="M30 98c8.54 10.92 20.2 18 34 18h16a6 6 0 0 0 0-12H70v-8.61C83.68 92.6 94 80.5 94 66v-6a6 6 0 0 0-12 0v6c0 9.94-8.06 18-18 18-5.7 0-10.78-2.65-14.08-6.79L30 98Z"/>
</svg>
